<svg width="40" height="40" viewBox="0 0 40 40" fill="none" xmlns="http://www.w3.org/2000/svg">
<circle cx="20" cy="20" r="20" fill="#5E982A"/>
<path d="M30 15.625V26.875C30 27.9102 29.1602 28.75 28.125 28.75H11.875C10.8398 28.75 10 27.9102 10 26.875V15.625C10 14.5898 10.8398 13.75 11.875 13.75H15.3125L15.793 12.4648C16.0664 11.7344 16.7656 11.25 17.5469 11.25H22.4492C23.2305 11.25 23.9297 11.7344 24.2031 12.4648L24.6875 13.75H28.125C29.1602 13.75 30 14.5898 30 15.625ZM24.6875 21.25C24.6875 18.6641 22.5859 16.5625 20 16.5625C17.4141 16.5625 15.3125 18.6641 15.3125 21.25C15.3125 23.8359 17.4141 25.9375 20 25.9375C22.5859 25.9375 24.6875 23.8359 24.6875 21.25ZM23.4375 21.25C23.4375 23.1445 21.8945 24.6875 20 24.6875C18.1055 24.6875 16.5625 23.1445 16.5625 21.25C16.5625 19.3555 18.1055 17.8125 20 17.8125C21.8945 17.8125 23.4375 19.3555 23.4375 21.25Z" fill="white"/>
</svg>
