<svg width="320" height="14" viewBox="0 0 320 14" fill="none" xmlns="http://www.w3.org/2000/svg">
<mask id="mask0_336_1553" style="mask-type:alpha" maskUnits="userSpaceOnUse" x="0" y="0" width="320" height="14">
<rect width="320" height="14" fill="#C4C4C4"/>
</mask>
<g mask="url(#mask0_336_1553)">
<mask id="path-2-inside-1_336_1553" fill="white">
<path fill-rule="evenodd" clip-rule="evenodd" d="M0 -576C0 -580.418 3.58172 -584 8 -584H312C316.418 -584 320 -580.418 320 -576L320 13.2565L308.744 2L297.487 13.2565L298.231 14H296.373L297.116 13.2565L285.86 2L274.604 13.2565L275.347 14H273.489L274.233 13.2565L262.976 2L251.72 13.2565L252.463 14H250.606L251.349 13.2565L240.093 2L228.836 13.2565L229.58 14H227.722L228.466 13.2565L217.209 2L205.953 13.2565L206.696 14H204.838L205.582 13.2565L194.325 2L183.069 13.2565L183.812 14H181.955L182.698 13.2565L171.442 2L160.185 13.2565L160.929 14H159.071L159.815 13.2565L148.558 2L137.302 13.2565L138.045 14H136.187L136.931 13.2565L125.674 2L114.418 13.2565L115.161 14H113.304L114.047 13.2565L102.791 2L91.5344 13.2565L92.278 14H90.4203L91.1638 13.2565L79.9073 2L68.6509 13.2565L69.3944 14H67.5367L68.2803 13.2565L57.0238 2L45.7673 13.2565L46.5109 14H44.6529L45.3965 13.2565L34.14 2L22.8835 13.2565L23.6271 14H21.7694L22.5129 13.2565L11.2565 2L0 13.2565V-576ZM0 13.2565L0.74353 14H0V13.2565ZM319.256 14L320 13.2565L320 14H319.256Z"/>
</mask>
<path fill-rule="evenodd" clip-rule="evenodd" d="M0 -576C0 -580.418 3.58172 -584 8 -584H312C316.418 -584 320 -580.418 320 -576L320 13.2565L308.744 2L297.487 13.2565L298.231 14H296.373L297.116 13.2565L285.86 2L274.604 13.2565L275.347 14H273.489L274.233 13.2565L262.976 2L251.72 13.2565L252.463 14H250.606L251.349 13.2565L240.093 2L228.836 13.2565L229.58 14H227.722L228.466 13.2565L217.209 2L205.953 13.2565L206.696 14H204.838L205.582 13.2565L194.325 2L183.069 13.2565L183.812 14H181.955L182.698 13.2565L171.442 2L160.185 13.2565L160.929 14H159.071L159.815 13.2565L148.558 2L137.302 13.2565L138.045 14H136.187L136.931 13.2565L125.674 2L114.418 13.2565L115.161 14H113.304L114.047 13.2565L102.791 2L91.5344 13.2565L92.278 14H90.4203L91.1638 13.2565L79.9073 2L68.6509 13.2565L69.3944 14H67.5367L68.2803 13.2565L57.0238 2L45.7673 13.2565L46.5109 14H44.6529L45.3965 13.2565L34.14 2L22.8835 13.2565L23.6271 14H21.7694L22.5129 13.2565L11.2565 2L0 13.2565V-576ZM0 13.2565L0.74353 14H0V13.2565ZM319.256 14L320 13.2565L320 14H319.256Z" fill="white"/>
<path d="M320 -576L321 -576V-576H320ZM308.744 2L309.451 1.29289L308.744 0.585785L308.036 1.29289L308.744 2ZM297.487 13.2565L296.78 12.5494L296.073 13.2565L296.78 13.9636L297.487 13.2565ZM298.231 14V15H300.645L298.938 13.2929L298.231 14ZM296.373 14L295.666 13.2929L293.959 15H296.373V14ZM297.116 13.2565L297.824 13.9636L298.531 13.2565L297.824 12.5494L297.116 13.2565ZM285.86 2L286.567 1.29289L285.86 0.585785L285.153 1.29289L285.86 2ZM274.604 13.2565L273.896 12.5494L273.189 13.2565L273.896 13.9636L274.604 13.2565ZM275.347 14V15H277.761L276.054 13.2929L275.347 14ZM273.489 14L272.782 13.2929L271.075 15H273.489V14ZM274.233 13.2565L274.94 13.9636L275.647 13.2565L274.94 12.5494L274.233 13.2565ZM262.976 2L263.683 1.29289L262.976 0.585785L262.269 1.29289L262.976 2ZM251.72 13.2565L251.013 12.5494L250.306 13.2565L251.013 13.9636L251.72 13.2565ZM252.463 14V15H254.877L253.17 13.2929L252.463 14ZM250.606 14L249.898 13.2929L248.191 15H250.606V14ZM251.349 13.2565L252.056 13.9636L252.763 13.2565L252.056 12.5494L251.349 13.2565ZM240.093 2L240.8 1.29289L240.093 0.585786L239.386 1.29289L240.093 2ZM228.836 13.2565L228.129 12.5494L227.422 13.2565L228.129 13.9636L228.836 13.2565ZM229.58 14V15H231.994L230.287 13.2929L229.58 14ZM227.722 14L227.015 13.2929L225.308 15H227.722V14ZM228.466 13.2565L229.173 13.9636L229.88 13.2565L229.173 12.5494L228.466 13.2565ZM217.209 2L217.916 1.29289L217.209 0.585786L216.502 1.29289L217.209 2ZM205.953 13.2565L205.246 12.5494L204.538 13.2565L205.246 13.9636L205.953 13.2565ZM206.696 14V15H209.11L207.403 13.2929L206.696 14ZM204.838 14L204.131 13.2929L202.424 15H204.838V14ZM205.582 13.2565L206.289 13.9636L206.996 13.2565L206.289 12.5494L205.582 13.2565ZM194.325 2L195.032 1.29289L194.325 0.585786L193.618 1.29289L194.325 2ZM183.069 13.2565L182.362 12.5494L181.655 13.2565L182.362 13.9636L183.069 13.2565ZM183.812 14V15H186.227L184.519 13.2929L183.812 14ZM181.955 14L181.248 13.2929L179.54 15H181.955V14ZM182.698 13.2565L183.405 13.9636L184.112 13.2565L183.405 12.5494L182.698 13.2565ZM171.442 2L172.149 1.29289L171.442 0.585786L170.735 1.29289L171.442 2ZM160.185 13.2565L159.478 12.5494L158.771 13.2565L159.478 13.9636L160.185 13.2565ZM160.929 14V15H163.343L161.636 13.2929L160.929 14ZM159.071 14L158.364 13.2929L156.657 15H159.071V14ZM159.815 13.2565L160.522 13.9636L161.229 13.2565L160.522 12.5494L159.815 13.2565ZM148.558 2L149.265 1.29289L148.558 0.585786L147.851 1.29289L148.558 2ZM137.302 13.2565L136.595 12.5494L135.888 13.2565L136.595 13.9636L137.302 13.2565ZM138.045 14V15H140.46L138.752 13.2929L138.045 14ZM136.187 14L135.48 13.2929L133.773 15H136.187V14ZM136.931 13.2565L137.638 13.9636L138.345 13.2565L137.638 12.5494L136.931 13.2565ZM125.674 2L126.382 1.29289L125.674 0.585786L124.967 1.29289L125.674 2ZM114.418 13.2565L113.711 12.5494L113.004 13.2565L113.711 13.9636L114.418 13.2565ZM115.161 14V15H117.576L115.869 13.2929L115.161 14ZM113.304 14L112.597 13.2929L110.89 15H113.304V14ZM114.047 13.2565L114.754 13.9636L115.462 13.2565L114.754 12.5494L114.047 13.2565ZM102.791 2L103.498 1.29289L102.791 0.585786L102.084 1.29289L102.791 2ZM91.5344 13.2565L90.8273 12.5494L90.1202 13.2565L90.8273 13.9636L91.5344 13.2565ZM92.278 14V15H94.6922L92.9851 13.2929L92.278 14ZM90.4203 14L89.7132 13.2929L88.0061 15H90.4203V14ZM91.1638 13.2565L91.8709 13.9636L92.578 13.2565L91.8709 12.5494L91.1638 13.2565ZM79.9073 2L80.6144 1.29289L79.9073 0.585786L79.2002 1.29289L79.9073 2ZM68.6509 13.2565L67.9438 12.5494L67.2367 13.2565L67.9438 13.9636L68.6509 13.2565ZM69.3944 14V15H71.8086L70.1015 13.2929L69.3944 14ZM67.5367 14L66.8296 13.2929L65.1225 15H67.5367V14ZM68.2803 13.2565L68.9874 13.9636L69.6945 13.2565L68.9874 12.5494L68.2803 13.2565ZM57.0238 2L57.7309 1.29289L57.0238 0.585786L56.3167 1.29289L57.0238 2ZM45.7673 13.2565L45.0602 12.5494L44.3531 13.2565L45.0602 13.9636L45.7673 13.2565ZM46.5109 14V15H48.9251L47.218 13.2929L46.5109 14ZM44.6529 14L43.9458 13.2929L42.2387 15H44.6529V14ZM45.3965 13.2565L46.1036 13.9636L46.8107 13.2565L46.1036 12.5494L45.3965 13.2565ZM34.14 2L34.8471 1.29289L34.14 0.585786L33.4329 1.29289L34.14 2ZM22.8835 13.2565L22.1764 12.5494L21.4693 13.2565L22.1764 13.9636L22.8835 13.2565ZM23.6271 14V15H26.0413L24.3342 13.2929L23.6271 14ZM21.7694 14L21.0623 13.2929L19.3552 15H21.7694V14ZM22.5129 13.2565L23.22 13.9636L23.9271 13.2565L23.22 12.5494L22.5129 13.2565ZM11.2565 2L11.9636 1.29289L11.2565 0.585786L10.5494 1.29289L11.2565 2ZM0.74353 14V15H3.15774L1.45064 13.2929L0.74353 14ZM0 14H-1V15H0V14ZM319.256 14L318.549 13.2929L316.842 15H319.256V14ZM320 14V15H321L321 14L320 14ZM8 -585C3.02944 -585 -1 -580.971 -1 -576H1C1 -579.866 4.134 -583 8 -583V-585ZM312 -585H8V-583H312V-585ZM321 -576C321 -580.971 316.971 -585 312 -585V-583C315.866 -583 319 -579.866 319 -576H321ZM321 13.2565L321 -576L319 -576L319 13.2565L321 13.2565ZM308.036 2.70711L319.293 13.9636L320.707 12.5494L309.451 1.29289L308.036 2.70711ZM298.194 13.9636L309.451 2.70711L308.036 1.29289L296.78 12.5494L298.194 13.9636ZM298.938 13.2929L298.194 12.5494L296.78 13.9636L297.523 14.7071L298.938 13.2929ZM296.373 15H298.231V13H296.373V15ZM296.409 12.5494L295.666 13.2929L297.08 14.7071L297.824 13.9636L296.409 12.5494ZM285.153 2.70711L296.409 13.9636L297.824 12.5494L286.567 1.29289L285.153 2.70711ZM275.311 13.9636L286.567 2.70711L285.153 1.29289L273.896 12.5494L275.311 13.9636ZM276.054 13.2929L275.311 12.5494L273.896 13.9636L274.64 14.7071L276.054 13.2929ZM273.489 15H275.347V13H273.489V15ZM273.526 12.5494L272.782 13.2929L274.196 14.7071L274.94 13.9636L273.526 12.5494ZM262.269 2.70711L273.526 13.9636L274.94 12.5494L263.683 1.29289L262.269 2.70711ZM252.427 13.9636L263.683 2.70711L262.269 1.29289L251.013 12.5494L252.427 13.9636ZM253.17 13.2929L252.427 12.5494L251.013 13.9636L251.756 14.7071L253.17 13.2929ZM250.606 15H252.463V13H250.606V15ZM250.642 12.5494L249.898 13.2929L251.313 14.7071L252.056 13.9636L250.642 12.5494ZM239.386 2.70711L250.642 13.9636L252.056 12.5494L240.8 1.29289L239.386 2.70711ZM229.543 13.9636L240.8 2.70711L239.386 1.29289L228.129 12.5494L229.543 13.9636ZM230.287 13.2929L229.543 12.5494L228.129 13.9636L228.873 14.7071L230.287 13.2929ZM227.722 15H229.58V13H227.722V15ZM227.758 12.5494L227.015 13.2929L228.429 14.7071L229.173 13.9636L227.758 12.5494ZM216.502 2.70711L227.758 13.9636L229.173 12.5494L217.916 1.29289L216.502 2.70711ZM206.66 13.9636L217.916 2.70711L216.502 1.29289L205.246 12.5494L206.66 13.9636ZM207.403 13.2929L206.66 12.5494L205.246 13.9636L205.989 14.7071L207.403 13.2929ZM204.838 15H206.696V13H204.838V15ZM204.875 12.5494L204.131 13.2929L205.545 14.7071L206.289 13.9636L204.875 12.5494ZM193.618 2.70711L204.875 13.9636L206.289 12.5494L195.032 1.29289L193.618 2.70711ZM183.776 13.9636L195.032 2.70711L193.618 1.29289L182.362 12.5494L183.776 13.9636ZM184.519 13.2929L183.776 12.5494L182.362 13.9636L183.105 14.7071L184.519 13.2929ZM181.955 15H183.812V13H181.955V15ZM181.991 12.5494L181.248 13.2929L182.662 14.7071L183.405 13.9636L181.991 12.5494ZM170.735 2.70711L181.991 13.9636L183.405 12.5494L172.149 1.29289L170.735 2.70711ZM160.892 13.9636L172.149 2.70711L170.735 1.29289L159.478 12.5494L160.892 13.9636ZM161.636 13.2929L160.892 12.5494L159.478 13.9636L160.222 14.7071L161.636 13.2929ZM159.071 15H160.929V13H159.071V15ZM159.108 12.5494L158.364 13.2929L159.778 14.7071L160.522 13.9636L159.108 12.5494ZM147.851 2.70711L159.108 13.9636L160.522 12.5494L149.265 1.29289L147.851 2.70711ZM138.009 13.9636L149.265 2.70711L147.851 1.29289L136.595 12.5494L138.009 13.9636ZM138.752 13.2929L138.009 12.5494L136.595 13.9636L137.338 14.7071L138.752 13.2929ZM136.187 15H138.045V13H136.187V15ZM136.224 12.5494L135.48 13.2929L136.894 14.7071L137.638 13.9636L136.224 12.5494ZM124.967 2.70711L136.224 13.9636L137.638 12.5494L126.382 1.29289L124.967 2.70711ZM115.125 13.9636L126.382 2.70711L124.967 1.29289L113.711 12.5494L115.125 13.9636ZM115.869 13.2929L115.125 12.5494L113.711 13.9636L114.454 14.7071L115.869 13.2929ZM113.304 15H115.161V13H113.304V15ZM113.34 12.5494L112.597 13.2929L114.011 14.7071L114.754 13.9636L113.34 12.5494ZM102.084 2.70711L113.34 13.9636L114.754 12.5494L103.498 1.29289L102.084 2.70711ZM92.2415 13.9636L103.498 2.70711L102.084 1.29289L90.8273 12.5494L92.2415 13.9636ZM92.9851 13.2929L92.2415 12.5494L90.8273 13.9636L91.5708 14.7071L92.9851 13.2929ZM90.4203 15H92.278V13H90.4203V15ZM90.4567 12.5494L89.7132 13.2929L91.1274 14.7071L91.8709 13.9636L90.4567 12.5494ZM79.2002 2.70711L90.4567 13.9636L91.8709 12.5494L80.6144 1.29289L79.2002 2.70711ZM69.358 13.9636L80.6144 2.70711L79.2002 1.29289L67.9438 12.5494L69.358 13.9636ZM70.1015 13.2929L69.358 12.5494L67.9438 13.9636L68.6873 14.7071L70.1015 13.2929ZM67.5367 15H69.3944V13H67.5367V15ZM67.5732 12.5494L66.8296 13.2929L68.2438 14.7071L68.9874 13.9636L67.5732 12.5494ZM56.3167 2.70711L67.5732 13.9636L68.9874 12.5494L57.7309 1.29289L56.3167 2.70711ZM46.4744 13.9636L57.7309 2.70711L56.3167 1.29289L45.0602 12.5494L46.4744 13.9636ZM47.218 13.2929L46.4744 12.5494L45.0602 13.9636L45.8038 14.7071L47.218 13.2929ZM44.6529 15H46.5109V13H44.6529V15ZM44.6894 12.5494L43.9458 13.2929L45.36 14.7071L46.1036 13.9636L44.6894 12.5494ZM33.4329 2.70711L44.6894 13.9636L46.1036 12.5494L34.8471 1.29289L33.4329 2.70711ZM23.5907 13.9636L34.8471 2.70711L33.4329 1.29289L22.1764 12.5494L23.5907 13.9636ZM24.3342 13.2929L23.5907 12.5494L22.1764 13.9636L22.92 14.7071L24.3342 13.2929ZM21.7694 15H23.6271V13H21.7694V15ZM21.8058 12.5494L21.0623 13.2929L22.4765 14.7071L23.22 13.9636L21.8058 12.5494ZM10.5494 2.70711L21.8058 13.9636L23.22 12.5494L11.9636 1.29289L10.5494 2.70711ZM0.707107 13.9636L11.9636 2.70711L10.5494 1.29289L-0.707107 12.5494L0.707107 13.9636ZM-1 -576V13.2565H1V-576H-1ZM1.45064 13.2929L0.707107 12.5494L-0.707107 13.9636L0.0364226 14.7071L1.45064 13.2929ZM0 15H0.74353V13H0V15ZM-1 13.2565V14H1V13.2565H-1ZM319.293 12.5494L318.549 13.2929L319.964 14.7071L320.707 13.9636L319.293 12.5494ZM321 14L321 13.2564L319 13.2565L319 14L321 14ZM319.256 15H320V13H319.256V15Z" fill="#DEDEDE" mask="url(#path-2-inside-1_336_1553)"/>
</g>
</svg>
